{
  "accessors": [
    {
      "bufferView": 2,
      "componentType": 5126,
      "count": 4,
      "max": [
        1,
        1,
        0
      ],
      "min": [
        -1,
        -1,
        0
      ],
      "type": "VEC3",
      "byteOffset": 0
    },
    {
      "bufferView": 2,
      "byteOffset": 48,
      "componentType": 5126,
      "count": 4,
      "max": [
        0,
        0,
        1
      ],
      "min": [
        0,
        0,
        1
      ],
      "type": "VEC3"
    },
    {
      "bufferView": 3,
      "componentType": 5126,
      "count": 4,
      "max": [
        1,
        0,
        0,
        1
      ],
      "min": [
        1,
        0,
        0,
        1
      ],
      "type": "VEC4",
      "byteOffset": 0
    },
    {
      "bufferView": 1,
      "componentType": 5126,
      "count": 4,
      "max": [
        0.9999000430107117,
        0.9999000430107117
      ],
      "min": [
        0.00009998001041822135,
        0.00009998001041822135
      ],
      "type": "VEC2",
      "byteOffset": 0
    },
    {
      "bufferView": 0,
      "componentType": 5125,
      "count": 6,
      "max": [
        3
      ],
      "min": [
        0
      ],
      "type": "SCALAR",
      "byteOffset": 0
    },
    {
      "bufferView": 2,
      "byteOffset": 96,
      "componentType": 5126,
      "count": 5684,
      "max": [
        0.475418359041214,
        0.3967928886413574,
        0.5224274396896362
      ],
      "min": [
        -0.6895134449005127,
        -0.39679214358329773,
        -0.4275725781917572
      ],
      "type": "VEC3"
    },
    {
      "bufferView": 2,
      "byteOffset": 68304,
      "componentType": 5126,
      "count": 5684,
      "max": [
        1,
        1,
        1
      ],
      "min": [
        -1,
        -1,
        -1
      ],
      "type": "VEC3"
    },
    {
      "bufferView": 3,
      "byteOffset": 64,
      "componentType": 5126,
      "count": 5684,
      "max": [
        0.519357442855835,
        0.9963828921318054,
        0.9484453201293945,
        1
      ],
      "min": [
        -0.5245579481124878,
        -0.9571125507354736,
        -0.9484357237815857,
        -1
      ],
      "type": "VEC4"
    },
    {
      "bufferView": 1,
      "byteOffset": 32,
      "componentType": 5126,
      "count": 5684,
      "max": [
        1,
        1
      ],
      "min": [
        0,
        0
      ],
      "type": "VEC2"
    },
    {
      "bufferView": 0,
      "byteOffset": 24,
      "componentType": 5125,
      "count": 33192,
      "max": [
        5683
      ],
      "min": [
        0
      ],
      "type": "SCALAR"
    },
    {
      "bufferView": 2,
      "byteOffset": 136512,
      "componentType": 5126,
      "count": 1769,
      "max": [
        0.08821213245391846,
        0.39807891845703125,
        0.5164899826049805
      ],
      "min": [
        -0.6907994747161865,
        -0.39807814359664917,
        -0.42163509130477905
      ],
      "type": "VEC3"
    },
    {
      "bufferView": 2,
      "byteOffset": 157740,
      "componentType": 5126,
      "count": 1769,
      "max": [
        0.956946611404419,
        1,
        0.4323682487010956
      ],
      "min": [
        -1,
        -1,
        -0.3184943199157715
      ],
      "type": "VEC3"
    },
    {
      "bufferView": 3,
      "byteOffset": 91008,
      "componentType": 5126,
      "count": 1769,
      "max": [
        1,
        0.9607267379760742,
        0.05694900453090668,
        1
      ],
      "min": [
        -1,
        -1,
        -0.00005495315053849481,
        1
      ],
      "type": "VEC4"
    },
    {
      "bufferView": 1,
      "byteOffset": 45504,
      "componentType": 5126,
      "count": 1769,
      "max": [
        0.9989879727363586,
        1.0015462636947632
      ],
      "min": [
        0,
        1.862645149230957e-8
      ],
      "type": "VEC2"
    },
    {
      "bufferView": 0,
      "byteOffset": 132792,
      "componentType": 5125,
      "count": 10080,
      "max": [
        1768
      ],
      "min": [
        0
      ],
      "type": "SCALAR"
    }
  ],
  "asset": {
    "extras": {
      "author": "muckmuddy (https://sketchfab.com/muckmuddy)",
      "license": "CC-BY-4.0 (http://creativecommons.org/licenses/by/4.0/)",
      "source": "https://sketchfab.com/3d-models/standard-mug-1ddf0e1fc752455b8bc78d0980436ea8",
      "title": "Standard Mug"
    },
    "generator": "Sketchfab-5.96.0",
    "version": "2.0"
  },
  "bufferViews": [
    {
      "buffer": 0,
      "byteLength": 173112,
      "byteOffset": 0,
      "name": "floatBufferViews",
      "target": 34963
    },
    {
      "buffer": 0,
      "byteLength": 59656,
      "byteOffset": 173112,
      "byteStride": 8,
      "name": "floatBufferViews",
      "target": 34962
    },
    {
      "buffer": 0,
      "byteLength": 178968,
      "byteOffset": 232768,
      "byteStride": 12,
      "name": "floatBufferViews",
      "target": 34962
    },
    {
      "buffer": 0,
      "byteLength": 119312,
      "byteOffset": 411736,
      "byteStride": 16,
      "name": "floatBufferViews",
      "target": 34962
    }
  ],
  "buffers": [
    {
      "uri": "model1_data.bin",
      "byteLength": 531048
    }
  ],
  "images": [
    {
      "name": "Porcelain_PBR.001_baseColor",
      "uri": "model1_img0.jpg"
    }
  ],
  "materials": [
    {
      "alphaMode": "BLEND",
      "doubleSided": true,
      "emissiveFactor": [
        0,
        0,
        0
      ],
      "name": "Material",
      "pbrMetallicRoughness": {
        "baseColorFactor": [
          0.8,
          0.8,
          0.8,
          0
        ],
        "metallicFactor": 0,
        "roughnessFactor": 0.9577051495
      }
    },
    {
      "doubleSided": true,
      "emissiveFactor": [
        0,
        0,
        0
      ],
      "name": "Porcelain_PBR.002",
      "pbrMetallicRoughness": {
        "baseColorFactor": [
          0.8,
          0.8,
          0.8,
          1
        ],
        "metallicFactor": 0,
        "roughnessFactor": 0
      },
      "alphaMode": "OPAQUE"
    },
    {
      "doubleSided": true,
      "emissiveFactor": [
        0,
        0,
        0
      ],
      "name": "Porcelain_PBR.001",
      "pbrMetallicRoughness": {
        "baseColorFactor": [
          1,
          1,
          1,
          1
        ],
        "baseColorTexture": {
          "index": 0,
          "texCoord": 0
        },
        "metallicFactor": 0,
        "roughnessFactor": 0
      },
      "alphaMode": "OPAQUE"
    }
  ],
  "meshes": [
    {
      "name": "Plane.002_Material_0",
      "primitives": [
        {
          "attributes": {
            "NORMAL": 1,
            "POSITION": 0,
            "TANGENT": 2,
            "TEXCOORD_0": 3
          },
          "indices": 4,
          "material": 0,
          "mode": 4
        }
      ]
    },
    {
      "name": "Mug_Porcelain PBR.002_0",
      "primitives": [
        {
          "attributes": {
            "NORMAL": 6,
            "POSITION": 5,
            "TANGENT": 7,
            "TEXCOORD_0": 8
          },
          "indices": 9,
          "material": 1,
          "mode": 4
        }
      ]
    },
    {
      "name": "Mug_Porcelain PBR.001_0",
      "primitives": [
        {
          "attributes": {
            "NORMAL": 11,
            "POSITION": 10,
            "TANGENT": 12,
            "TEXCOORD_0": 13
          },
          "indices": 14,
          "material": 2,
          "mode": 4
        }
      ]
    }
  ],
  "nodes": [
    {
      "children": [
        1
      ],
      "name": "RootNode (gltf orientation matrix)",
      "rotation": [
        -0.7071067811865475,
        0,
        0,
        0.7071067811865476
      ],
      "translation": [
        0,
        0,
        0
      ],
      "scale": [
        1,
        1,
        1
      ]
    },
    {
      "children": [
        2
      ],
      "name": "RootNode (model correction matrix)"
    },
    {
      "children": [
        3
      ],
      "matrix": [
        1,
        0,
        0,
        0,
        0,
        0,
        1,
        0,
        0,
        -1,
        0,
        0,
        0,
        0,
        0,
        1
      ],
      "name": "3b905d59b55e420fb282ceb730058a36.fbx"
    },
    {
      "children": [
        4,
        6
      ],
      "name": "RootNode"
    },
    {
      "children": [
        5
      ],
      "matrix": [
        -14.99999999999994,
        -0.0000013113416970684733,
        0,
        0,
        -2.1364468066562796e-13,
        0.000002443810199204144,
        14.9999999999998,
        0,
        -0.0000013113416970684557,
        14.999999999999742,
        -0.0000024438101975388093,
        0,
        0,
        -4.275744438171387,
        0,
        1
      ],
      "name": "Plane.002"
    },
    {
      "mesh": 0,
      "name": "Plane.002_Material_0"
    },
    {
      "children": [
        7,
        8
      ],
      "matrix": [
        -9.999999999999961,
        -8.742277980456488e-7,
        0,
        0,
        -1.4242978711041864e-13,
        0.0000016292067994694293,
        9.999999999999865,
        0,
        -8.742277980456371e-7,
        9.999999999999828,
        -0.0000016292067983592062,
        0,
        0,
        0,
        0,
        1
      ],
      "name": "Mug"
    },
    {
      "mesh": 1,
      "name": "Mug_Porcelain PBR.002_0"
    },
    {
      "mesh": 2,
      "name": "Mug_Porcelain PBR.001_0"
    }
  ],
  "samplers": [
    {
      "magFilter": 9729,
      "minFilter": 9987,
      "wrapS": 10497,
      "wrapT": 10497
    }
  ],
  "scene": 0,
  "scenes": [
    {
      "name": "OSG_Scene",
      "nodes": [
        0
      ]
    }
  ],
  "textures": [
    {
      "sampler": 0,
      "source": 0
    }
  ]
}
